{"asset":{"version":"2.0","generator":"THREE.GLTFExporter"},"scenes":[{"name":"default","nodes":[0]}],"scene":0,"nodes":[{"name":"well_bucket","extras":{"data":{"name":"well_bucket","points":[{"name":"Origin","pos":{"x":0,"y":0,"z":0}}],"billboard":{"enabled":false,"y":false},"directional":{"enabled":false,"mode":"cameraAngle","angles":[]},"custom":[],"instances":[{"name":"well_bucket","uuid":"A0830007-7B49-404E-8C4E-D6E5B46E4300","parent":null,"pos":{"x":3,"y":1,"z":12},"rot":{"x":0,"y":0,"z":0,"order":"XYZ"},"sca":{"x":1,"y":1,"z":1},"custom":[]},{"name":"well_bucket","uuid":"8E78F684-078B-4665-943C-4DB47D4A537C","parent":null,"pos":{"x":12.5,"y":1,"z":-9.375},"rot":{"x":0,"y":0,"z":0,"order":"XYZ"},"sca":{"x":1,"y":1,"z":1},"custom":[]}]}},"mesh":0}],"bufferViews":[{"buffer":0,"byteOffset":0,"byteLength":1680,"target":34962,"byteStride":12},{"buffer":0,"byteOffset":1680,"byteLength":1680,"target":34962,"byteStride":12},{"buffer":0,"byteOffset":3360,"byteLength":1120,"target":34962,"byteStride":8},{"buffer":0,"byteOffset":4480,"byteLength":396,"target":34963}],"buffers":[{"byteLength":4876,"uri":"data:application/octet-stream;base64,"}],"accessors":[{"bufferView":0,"componentType":5126,"count":140,"max":[0.125,0.90625,0.12504999339580536],"min":[-0.125,-0.25,-0.12496250122785568],"type":"VEC3"},{"bufferView":1,"componentType":5126,"count":140,"max":[0.9922778606414795,1,1],"min":[-0.9922778606414795,-1,-1],"type":"VEC3"},{"bufferView":2,"componentType":5126,"count":140,"max":[0.1026785746216774,0.1927083134651184],"min":[0.0803571417927742,0.1614583134651184],"type":"VEC2"},{"bufferView":3,"componentType":5123,"count":198,"max":[139],"min":[0],"type":"SCALAR"}],"materials":[{"pbrMetallicRoughness":{"metallicFactor":0,"roughnessFactor":1,"baseColorTexture":{"index":0}},"alphaMode":"MASK","alphaCutoff":0.01,"name":"Towns_Props"}],"textures":[{"sampler":0,"source":0,"name":"Towns_Props"}],"samplers":[{"magFilter":9728,"minFilter":9728,"wrapS":33071,"wrapT":33071}],"images":[{"mimeType":"image/png","uri":"Towns_Props.png"}],"meshes":[{"primitives":[{"mode":4,"attributes":{"POSITION":0,"NORMAL":1,"TEXCOORD_0":2},"indices":3,"material":0}]}]}